<svg xmlns="http://www.w3.org/2000/svg" viewBox="0 0 32 32">
  <!-- Background circle -->
  <circle cx="16" cy="16" r="15" fill="#166534"/>
  <!-- Greenhouse structure -->
  <path d="M6 22 L6 14 L16 8 L26 14 L26 22 Z" fill="none" stroke="#22c55e" stroke-width="1.5"/>
  <!-- Glass panels -->
  <line x1="11" y1="11" x2="11" y2="22" stroke="#86efac" stroke-width="0.8"/>
  <line x1="16" y1="8" x2="16" y2="22" stroke="#86efac" stroke-width="0.8"/>
  <line x1="21" y1="11" x2="21" y2="22" stroke="#86efac" stroke-width="0.8"/>
  <!-- Plant sprout -->
  <path d="M16 22 Q14 18 16 16 Q18 18 16 22" fill="#4ade80"/>
  <path d="M16 17 Q13 14 16 13" fill="none" stroke="#4ade80" stroke-width="1.2" stroke-linecap="round"/>
  <path d="M16 17 Q19 14 16 13" fill="none" stroke="#4ade80" stroke-width="1.2" stroke-linecap="round"/>
  <!-- Leaf details -->
  <ellipse cx="13" cy="14" rx="2" ry="1.5" fill="#22c55e" transform="rotate(-30 13 14)"/>
  <ellipse cx="19" cy="14" rx="2" ry="1.5" fill="#22c55e" transform="rotate(30 19 14)"/>
</svg>
